HIERARCHY
ROOT Hips
{
	OFFSET	0.00	0.00	0.00
	CHANNELS 6 Xposition Yposition Zposition Zrotation Xrotation Yrotation
	JOINT LeftUpLeg
	{
		OFFSET	 0.126116	-0.014019	-0.065224
		CHANNELS 3 Zrotation Xrotation Yrotation
		JOINT LeftLeg
		{
			OFFSET	 0.000000	 0.000000	 0.569914
			CHANNELS 3 Zrotation Xrotation Yrotation
			JOINT LeftFoot
			{
				OFFSET	 0.000000	 0.000000	 0.544423
				CHANNELS 3 Zrotation Xrotation Yrotation
				JOINT LeftToeBase
				{
					OFFSET	 0.000000	 0.000000	 0.207117
					CHANNELS 3 Zrotation Xrotation Yrotation
					End Site
					{
						OFFSET	 0.000000	 0.000000	 0.207117
					}
				}
			}
		}
	}
	JOINT RightUpLeg
	{
		OFFSET	-0.124023	-0.008373	-0.065224
		CHANNELS 3 Zrotation Xrotation Yrotation
		JOINT RightLeg
		{
			OFFSET	 0.000000	 0.000000	 0.570047
			CHANNELS 3 Zrotation Xrotation Yrotation
			JOINT RightFoot
			{
				OFFSET	 0.000000	 0.000000	 0.544354
				CHANNELS 3 Zrotation Xrotation Yrotation
				JOINT RightToeBase
				{
					OFFSET	 0.000000	 0.000000	 0.207540
					CHANNELS 3 Zrotation Xrotation Yrotation
					End Site
					{
						OFFSET	 0.000000	 0.000000	 0.207540
					}
				}
			}
		}
	}
	JOINT Spine
	{
		OFFSET	 0.000184	-0.007763	 0.117403
		CHANNELS 3 Zrotation Xrotation Yrotation
		JOINT Spine1
		{
			OFFSET	 0.000000	 0.000000	 0.137269
			CHANNELS 3 Zrotation Xrotation Yrotation
			JOINT Spine2
			{
				OFFSET	 0.000000	 0.000000	 0.156879
				CHANNELS 3 Zrotation Xrotation Yrotation
				JOINT LeftShoulder
				{
					OFFSET	 0.080501	-0.002496	 0.160144
					CHANNELS 3 Zrotation Xrotation Yrotation
					JOINT LeftArm
					{
						OFFSET	 0.000000	 0.000000	 0.164363
						CHANNELS 3 Zrotation Xrotation Yrotation
						JOINT LeftForeArm
						{
							OFFSET	 0.000000	 0.000000	 0.364576
							CHANNELS 3 Zrotation Xrotation Yrotation
							JOINT LeftHand
							{
								OFFSET	 0.000000	 0.000000	 0.360812
								CHANNELS 3 Zrotation Xrotation Yrotation
								JOINT LeftHandIndex1
								{
									OFFSET	 0.000000	 0.000000	 0.086006
									CHANNELS 3 Zrotation Xrotation Yrotation
									JOINT LeftHandIndex2
									{
										OFFSET	 0.000000	 0.000000	 0.047237
										CHANNELS 3 Zrotation Xrotation Yrotation
										JOINT LeftHandIndex3
										{
											OFFSET	-0.004284	-0.000551	 0.038165
											CHANNELS 3 Zrotation Xrotation Yrotation
											End Site
											{
												OFFSET	-0.004284	-0.000551	 0.038165
											}
										}
									}
								}
							}
						}
					}
				}
				JOINT Neck
				{
					OFFSET	 0.000000	 0.000000	 0.176489
					CHANNELS 3 Zrotation Xrotation Yrotation
					JOINT Head
					{
						OFFSET	 0.000000	-0.001747	 0.077940
						CHANNELS 3 Zrotation Xrotation Yrotation
						End Site
						{
							OFFSET	 0.000000	-0.001747	 0.077940
						}
					}
				}
				JOINT RightShoulder
				{
					OFFSET	-0.080363	 0.000306	 0.159706
					CHANNELS 3 Zrotation Xrotation Yrotation
					JOINT RightArm
					{
						OFFSET	 0.000000	 0.000000	 0.164196
						CHANNELS 3 Zrotation Xrotation Yrotation
						JOINT RightForeArm
						{
							OFFSET	 0.000000	 0.000000	 0.365611
							CHANNELS 3 Zrotation Xrotation Yrotation
							JOINT RightHand
							{
								OFFSET	 0.000000	 0.000000	 0.360648
								CHANNELS 3 Zrotation Xrotation Yrotation
								JOINT RightHandIndex1
								{
									OFFSET	 0.000000	 0.000000	 0.069977
									CHANNELS 3 Zrotation Xrotation Yrotation
									JOINT RightHandIndex2
									{
										OFFSET	 0.000000	 0.000000	 0.052305
										CHANNELS 3 Zrotation Xrotation Yrotation
										JOINT RightHandIndex3
										{
											OFFSET	 0.009002	-0.000782	 0.042196
											CHANNELS 3 Zrotation Xrotation Yrotation
											End Site
											{
												OFFSET	 0.009002	-0.000782	 0.042196
											}
										}
									}
								}
							}
						}
					}
				}
			}
		}
	}
}
MOTION
Frames:    8
Frame Time: 0.03333334
-0.717077	-1.662293	 1.273984	 179.632100	 0.857563	 1.983361	-8.773781	-3.243785	 177.216100	 6.160935	-13.896720	 1.960897	-35.238300	 71.763720	 16.051850	-2.385833	 28.452760	 0.000004	-1.211751	-1.963725	 178.495100	-19.759970	-9.927435	-1.539327	 37.561910	 69.550610	-15.430630	 2.384659	 28.388700	-0.000001	-3.033638	-0.781223	-2.666495	-3.816939	 14.102290	-4.969582	 9.731266	-17.937230	 10.978870	-91.776250	 78.527350	-179.999900	-8.054661	-9.910165	-5.246303	-5.103029	-3.451365	-18.948990	 8.000521	 3.078485	-5.645638	-4.131196	 21.524690	 0.986298	-5.167839	 0.733520	 3.519257	-1.378229	 35.397820	-2.634230	 0.000022	-3.783157	-0.089647	-14.739150	 8.988241	 1.164865	 89.782150	 78.203850	 180.000000	 5.558699	-1.999376	-1.475334	 6.809523	-3.395793	 29.329050	-2.229034	-5.530383	 14.560320	 5.715225	 19.176060	-3.692089	 5.027514	 0.245388	-9.378011	-2.350882	 35.473990	 5.254307
-0.717697	-1.657154	 1.275113	-176.710900	 6.312219	-1.628983	-4.684329	-8.601877	 179.818600	-0.847451	-13.046140	 0.249388	-20.051030	 55.743630	 10.266970	-2.385833	 28.452760	 0.000004	-0.865647	-11.775440	-178.064800	-4.831089	-17.931960	 1.874977	 0.238995	 81.486780	 9.550758	 2.384659	 28.388700	-0.000001	-8.256841	 6.513117	 3.306968	-4.633842	-10.071850	-15.724220	 10.012070	-7.634704	 17.385850	-91.776080	 78.527430	 179.999900	-36.863310	 2.269693	 0.527444	-7.810182	-6.102973	-39.932970	 8.193460	 1.103611	-4.234297	-4.131196	 21.524690	 0.986298	-5.167839	 0.733520	 3.519257	-1.378229	 35.397820	-2.634230	 1.584181	 7.993430	 0.600397	-13.601310	-9.444526	-4.761736	 89.782120	 78.203920	 180.000000	-0.630143	 4.633488	-8.698698	-2.335287	-14.368850	 42.481270	-24.413120	 45.487040	 75.297400	 5.715225	 19.176060	-3.692089	 5.027514	 0.245388	-9.378011	-2.350882	 35.473990	 5.254307
-0.713237	-1.650595	 1.273600	-176.466500	 6.551525	-2.202320	-4.682381	-10.099010	 179.575200	 0.391353	-17.786140	 0.716200	-23.862960	 56.388850	 14.026640	-2.385833	 28.452760	 0.000004	 1.988687	-14.032050	-176.984700	-6.092186	-20.940370	 1.721939	 13.829750	 85.897690	-2.936478	 2.384659	 28.388700	-0.000001	-9.778988	 5.657975	 3.720364	-6.166327	-7.006747	-16.668940	 10.564740	-8.923670	 17.879050	-91.776210	 78.527380	-180.000000	-34.032750	 7.340222	 11.998670	-10.551790	-7.631008	-59.366260	 7.535826	 0.706873	-4.015932	-4.131196	 21.524690	 0.986298	-5.167839	 0.733520	 3.519257	-1.378229	 35.397820	-2.634230	 1.423216	 7.993010	 1.121503	-13.387880	-9.006471	-4.546634	 89.782110	 78.203870	 180.000000	-2.663067	 10.371700	-12.952360	 1.258089	-17.305310	 55.463910	-19.510800	 45.115740	 65.872060	 5.715225	 19.176060	-3.692089	 5.027514	 0.245388	-9.378011	-2.350882	 35.473990	 5.254307
-0.709951	-1.645459	 1.272552	-176.388000	 6.729249	-2.450074	-4.982708	-10.808370	 179.181800	 1.247186	-20.668630	 1.130265	-26.746740	 57.110190	 16.816000	-2.385833	 28.452760	 0.000004	 3.373776	-15.762790	-176.302900	-6.711043	-23.147050	 1.649258	 41.848650	 87.342740	-30.465390	 2.384659	 28.388700	-0.000001	-10.896240	 4.937944	 3.809154	-7.317569	-4.226602	-17.436470	 11.120890	-10.178310	 18.519790	-91.776210	 78.527420	 180.000000	-31.383430	 11.220970	 18.484110	-12.164130	-8.030047	-70.168220	 7.230045	 0.531072	-3.911453	-4.131196	 21.524690	 0.986298	-5.167839	 0.733520	 3.519257	-1.378229	 35.397820	-2.634230	 1.372349	 7.941262	 1.327451	-13.295370	-8.768629	-4.445630	 89.782130	 78.203920	 180.000000	-4.216522	 15.079610	-14.753920	 3.612141	-18.552830	 62.982470	-17.671830	 43.205900	 59.816620	 5.715225	 19.176060	-3.692089	 5.027514	 0.245388	-9.378011	-2.350882	 35.473990	 5.254307
-0.699667	-1.627133	 1.269918	-176.385200	 7.709225	-2.661796	-7.314018	-11.816790	 177.278300	 3.727224	-27.358360	 2.616710	-36.378410	 58.647110	 26.295310	-2.385833	 28.452760	 0.000004	 4.837412	-21.285710	-174.389600	-6.980836	-28.323660	 1.861874	 62.601420	 84.672630	-51.435880	 2.384659	 28.388700	-0.000001	-14.675770	 2.243318	 2.674956	-11.223630	 5.943210	-18.862080	 13.684110	-15.181660	 21.279330	-91.776120	 78.527400	 180.000000	-19.892440	 25.866620	 27.930290	-15.156430	-7.609767	-90.817030	 6.442728	 0.112164	-3.659933	-4.131196	 21.524690	 0.986298	-5.167839	 0.733520	 3.519257	-1.378229	 35.397820	-2.634230	 1.610731	 8.159117	 1.245489	-13.215760	-9.322564	-4.633395	 89.782100	 78.203890	 180.000000	-10.129550	 32.641240	-13.942910	 7.746316	-20.143420	 75.522190	-24.069810	 33.194770	 51.035480	 5.715225	 19.176060	-3.692089	 5.027514	 0.245388	-9.378011	-2.350882	 35.473990	 5.254307
-0.683362	-1.595694	 1.267332	-176.763800	 10.644410	-2.176064	-11.761770	-11.518640	 173.854000	 5.226508	-32.210160	 3.845178	-45.848860	 58.187550	 36.542470	-2.385833	 28.452760	 0.000004	 6.278174	-29.390580	-171.720700	-6.297713	-32.167010	 2.454138	 34.849190	 72.531200	-26.508140	 2.384659	 28.388700	-0.000001	-20.146820	-1.919018	-2.838928	-18.037110	 17.702770	-14.365680	 16.383510	-21.485930	 22.165870	-91.776210	 78.527360	-180.000000	 4.992658	 41.387250	 4.497256	-14.441690	-7.240981	-85.198270	 6.166784	-0.012071	-3.583355	-4.131196	 21.524690	 0.986298	-5.167839	 0.733520	 3.519257	-1.378229	 35.397820	-2.634230	 1.854349	 8.292755	 0.849490	-13.221990	-9.551431	-4.433786	 89.782030	 78.285030	-179.969800	-21.315240	 55.770440	 2.950380	 2.550121	-19.065120	 60.964580	-46.600810	 9.630050	 51.683490	 5.715225	 19.176060	-3.692089	 5.027514	 0.245388	-9.378011	-2.350882	 35.473990	 5.254307
-0.660476	-1.554170	 1.266002	-176.852700	 13.652710	-0.224396	-15.191390	-9.011426	 169.292600	 2.161165	-33.701560	 2.285046	-41.477500	 52.137970	 37.214400	-2.385833	 28.452760	 0.000004	 6.638753	-35.544660	-171.142100	-7.356356	-32.926520	 1.928119	 33.711390	 66.129420	-26.543100	 2.384659	 28.388700	-0.000001	-25.497530	-3.809696	-11.592650	-24.730480	 22.874240	-5.680087	 17.119300	-25.680450	 20.226780	-91.776180	 78.527400	-180.000000	 12.676980	 42.724310	-29.020740	-9.787530	-5.483462	-46.063520	 6.007827	-0.358909	-3.541771	-4.131196	 21.524690	 0.986298	-5.167839	 0.733520	 3.519257	-1.378229	 35.397820	-2.634230	 2.348997	 8.517652	 0.077432	-13.178110	-10.036690	-3.648948	 89.781950	 78.315380	-179.957800	-28.484810	 62.938870	 37.290290	-9.352623	-0.190188	 0.466499	-58.758520	-32.264470	 53.765020	 5.715225	 19.176060	-3.692089	 5.027514	 0.245388	-9.378011	-2.350882	 35.473990	 5.254307
-0.633510	-1.511645	 1.265621	-176.872600	 13.875630	 0.633756	-13.920560	-4.903359	 167.083500	 0.970927	-31.822540	 1.542259	-30.958770	 42.232800	 31.639500	-2.385833	 28.452760	 0.000004	 5.873282	-36.584210	-171.971400	-8.300556	-32.560800	 1.399843	 34.365710	 63.602790	-27.667140	 2.384659	 28.388700	-0.000001	-27.263430	-3.461766	-14.179660	-26.572410	 23.477170	-2.302033	 16.660410	-26.815460	 18.351850	-91.776180	 78.527420	-180.000000	 9.022070	 42.574780	-42.313690	-7.374641	-2.437462	-17.518250	 6.044077	-0.534298	-3.564606	-4.131196	 21.524690	 0.986298	-5.167839	 0.733520	 3.519257	-1.378229	 35.397820	-2.634230	 2.513777	 8.867731	-0.030273	-13.127170	-10.224850	-3.888315	 89.781900	 78.323330	-179.954400	-32.454530	 64.826980	 39.374020	-8.920296	-0.177125	 0.444018	-61.811040	-33.989800	 52.317940	 5.715225	 19.176060	-3.692089	 5.027514	 0.245388	-9.378011	-2.350882	 35.473990	 5.254307
